<svg xmlns="http://www.w3.org/2000/svg" viewBox="0 0 800 520"><rect width="800" height="520" fill="#e1eee9"/><circle cx="639" cy="102" r="45" fill="#f6dda0"/><path d="M0 270Q200 170 400 270T800 260V520H0Z" fill="#9cbd90"/><path d="M0 360Q200 265 420 370T800 350V520H0Z" fill="#729d78"/><path d="M320 520Q210 420 425 350Q550 300 460 267" fill="none" stroke="#e5d9b7" stroke-width="76"/><g transform="translate(300 185) scale(.8)"><ellipse cx="120" cy="210" rx="75" ry="45" fill="#d9ba8c"/><path d="M67 63Q26 40 31 115Q36 159 75 142M173 63Q214 40 209 115Q204 159 165 142" fill="#97603c"/><ellipse cx="120" cy="113" rx="65" ry="74" fill="#c28b55"/><ellipse cx="120" cy="139" rx="44" ry="38" fill="#f5dfbc"/><circle cx="94" cy="103" r="6" fill="#382b26"/><circle cx="146" cy="103" r="6" fill="#382b26"/><path d="M108 130Q120 123 132 130Q131 144 120 144Q109 144 108 130" fill="#382b26"/><path d="M120 144V153M104 153Q120 166 136 153" fill="none" stroke="#6e4435" stroke-width="4" stroke-linecap="round"/><path d="M69 177Q120 204 171 177" fill="none" stroke="#548f78" stroke-width="16"/><circle cx="120" cy="194" r="11" fill="#e9be64"/></g><g fill="#f6e9af"><circle cx="115" cy="370" r="7"/><circle cx="154" cy="411" r="6"/><circle cx="667" cy="425" r="7"/><circle cx="696" cy="368" r="6"/></g><text x="30" y="483" fill="#eff6ec" font-family="sans-serif" font-size="18">A garden moment · fictional sample illustration</text></svg>