<svg xmlns="http://www.w3.org/2000/svg" viewBox="0 0 1080 360">
  <defs>
    <radialGradient id="stone" cx="35%" cy="25%" r="80%">
      <stop offset="0" stop-color="#d7d8d2"/>
      <stop offset="0.52" stop-color="#aeb0aa"/>
      <stop offset="1" stop-color="#6f7471"/>
    </radialGradient>
    <filter id="stoneShadow" x="-20%" y="-20%" width="140%" height="140%">
      <feDropShadow dx="0" dy="9" stdDeviation="5" flood-color="#000" flood-opacity="0.38"/>
      <feDropShadow dx="0" dy="-1" stdDeviation="0.8" flood-color="#fff" flood-opacity="0.45"/>
    </filter>
    <style>
      .bg { fill: #0a0e18; }
      .panel { fill: #131722; stroke: #343945; stroke-width: 3; rx: 18; }
      .label { fill: #f7eef2; font: 700 24px Arial, sans-serif; text-anchor: middle; }
      .mark path, .mark circle {
        fill: url(#stone);
        stroke: #4e514f;
        stroke-width: 7;
        stroke-linecap: round;
        stroke-linejoin: round;
      }
      .mark text {
        fill: #565a58;
        stroke: rgba(244,244,238,0.42);
        stroke-width: 1.2;
        paint-order: stroke fill;
        font: 900 19px Georgia, serif;
        text-anchor: middle;
        letter-spacing: 1px;
      }
    </style>
  </defs>

  <rect class="bg" width="1080" height="360"/>

  <g transform="translate(30 28)">
    <rect class="panel" width="240" height="300"/>
    <text class="label" x="120" y="268">Education</text>
    <g class="mark" filter="url(#stoneShadow)" transform="translate(0 8)">
      <circle cx="82" cy="96" r="52"/>
      <circle cx="150" cy="116" r="58"/>
      <path d="M54 98c22-18 45-18 66 0M122 118c24-20 52-20 76 0"/>
      <path d="M72 84l10-22 10 22 24 3-18 16 5 24-21-12-21 12 5-24-18-16z"/>
      <path d="M142 88h38v50h-38zM154 88v50M168 88v50M137 102h48"/>
      <text x="82" y="170">SYSU</text>
      <text x="154" y="185">UOA</text>
    </g>
  </g>

  <g transform="translate(300 28)">
    <rect class="panel" width="240" height="300"/>
    <text class="label" x="120" y="268">Works</text>
    <g class="mark" filter="url(#stoneShadow)" transform="translate(0 8)">
      <path d="M48 66h104c9 0 16 7 16 16v66H32V82c0-9 7-16 16-16z"/>
      <path d="M22 158h158l-18 24H40zM72 92h58M72 116h42"/>
      <path d="M132 126c10-18 27-28 48-27 26 1 42 17 45 43l5 39c1 12-7 22-19 22-9 0-16-5-21-14l-9-16h-34l-9 16c-5 9-12 14-21 14-12 0-20-10-19-22l5-39c1-6 3-11 5-16z"/>
      <path d="M145 139h28M159 125v28M194 135h1M208 151h1"/>
    </g>
  </g>

  <g transform="translate(570 28)">
    <rect class="panel" width="240" height="300"/>
    <text class="label" x="120" y="268">Skills</text>
    <g class="mark" filter="url(#stoneShadow)" transform="translate(0 8)">
      <path d="M120 28l76 44v88l-76 44-76-44V72z"/>
      <path d="M120 28v176M44 72l76 44 76-44M44 160l76-44 76 44"/>
      <circle cx="82" cy="92" r="25"/>
      <circle cx="158" cy="92" r="25"/>
      <circle cx="82" cy="150" r="25"/>
      <circle cx="158" cy="150" r="25"/>
      <text x="82" y="101">JS</text>
      <text x="158" y="101">C#</text>
      <text x="82" y="159">.N</text>
      <text x="158" y="159">AI</text>
    </g>
  </g>

  <g transform="translate(840 28)">
    <rect class="panel" width="240" height="300"/>
    <text class="label" x="120" y="268">Blog</text>
    <g class="mark" filter="url(#stoneShadow)" transform="translate(0 8)">
      <path d="M62 38h92l34 34v130H62z"/>
      <path d="M154 38v36h34M86 96h78M86 124h78M86 152h48"/>
      <path d="M42 76h44v44H42zM54 90h20M54 106h14"/>
      <path d="M154 166c14-8 28-7 40 2-6 16-19 24-39 23 8-7 11-15 9-25z"/>
    </g>
  </g>
</svg>
